<svg xmlns="http://www.w3.org/2000/svg" viewBox="0 0 560 260" width="100%" height="100%">
  <defs>
    <style>
      @import url('https://fonts.googleapis.com/css2?family=Space+Grotesk:wght@400;500;700&amp;family=JetBrains+Mono:wght@300;400;500&amp;display=swap');
      
      /* Signage Typography */
      .sign-title-text { font-family: 'Space Grotesk', sans-serif; font-weight: 700; font-size: 42px; fill: #FFFFFF; letter-spacing: -1px; }
    </style>

    <filter id="amberGlow" x="-30%" y="-30%" width="160%" height="160%">
      <feGaussianBlur stdDeviation="8" result="blur" />
      <feMerge>
        <feMergeNode in="blur"/>
        <feMergeNode in="SourceGraphic"/>
      </feMerge>
    </filter>

    <filter id="cyanGlow" x="-30%" y="-30%" width="160%" height="160%">
      <feGaussianBlur stdDeviation="4" result="blur" />
      <feMerge>
        <feMergeNode in="blur"/>
        <feMergeNode in="SourceGraphic"/>
      </feMerge>
    </filter>

    <g id="uniqueNestLogo">
      <polygon points="0,-45 40,-20 0,5 -40,-20" fill="none" stroke="#FFCC00" stroke-width="6.5" stroke-linejoin="round" filter="url(#amberGlow)"/>
      <path d="M -25,-5 V 15 L 0,30 L 25,15 V -5" fill="none" stroke="#FFFFFF" stroke-width="4.5" stroke-linecap="round" stroke-linejoin="round" opacity="0.25"/>
      <path d="M 0,-20 L 18,-5 L 12,25" fill="none" stroke="#00FFCC" stroke-width="6" stroke-linecap="round" stroke-linejoin="round" filter="url(#cyanGlow)"/>
      <circle cx="12" cy="25" r="3.5" fill="#FFFFFF"/>
    </g>
  </defs>

  <rect width="560" height="260" fill="#08080A" stroke="#141419" stroke-width="2"/>
  <line x1="40" y1="0" x2="40" y2="260" stroke="#000000" stroke-width="3.5"/>
  <line x1="120" y1="0" x2="120" y2="260" stroke="#000000" stroke-width="3.5"/>
  <line x1="200" y1="0" x2="200" y2="260" stroke="#000000" stroke-width="3.5"/>
  <line x1="280" y1="0" x2="280" y2="260" stroke="#000000" stroke-width="3.5"/>
  <line x1="360" y1="0" x2="360" y2="260" stroke="#000000" stroke-width="3.5"/>
  <line x1="440" y1="0" x2="440" y2="260" stroke="#000000" stroke-width="3.5"/>
  <line x1="520" y1="0" x2="520" y2="260" stroke="#000000" stroke-width="3.5"/>
  
  <rect x="30" y="40" width="500" height="180" rx="16" fill="#111115" stroke="#2A2A35" stroke-width="1.5"/>
  <line x1="60" y1="192" x2="470" y2="192" stroke="#FFCC00" stroke-width="5" stroke-linecap="round" filter="url(#amberGlow)"/>
  <line x1="60" y1="192" x2="470" y2="192" stroke="#00FFCC" stroke-width="1.5" stroke-linecap="round" filter="url(#cyanGlow)"/>
  <use href="#uniqueNestLogo" transform="translate(85, 115) scale(1.0)"/>
  <text x="155" y="128">
    <tspan class="sign-title-text">ACHIEVERS</tspan>
    <tspan class="sign-title-text" fill="#FFCC00">NEST</tspan>
  </text>
  <g transform="translate(155, 54)">
    <rect width="295" height="18" rx="4" fill="#0C0C0E" stroke="#00FFCC" stroke-width="0.75"/>
    <text x="10" y="12" font-family="'JetBrains Mono', monospace" font-weight="500" font-size="7.5" fill="#00FFCC" letter-spacing="0.5px">STATE BOARD · CBSE · MATRIC · ICSE HUB</text>
  </g>
</svg>
